<svg width="172" height="172" viewBox="0 0 172 172" fill="none" xmlns="http://www.w3.org/2000/svg">
<path fill-rule="evenodd" clip-rule="evenodd" d="M46.0078 159.264C43.0926 159.264 41.2705 157.052 41.2705 153.434C41.2705 136.335 75.199 97.4956 109.045 64.5733C103.322 101.548 65.5112 159.264 46.0078 159.264ZM167.46 6.46241C162.803 6.57465 153.248 6.93614 144.866 7.05639C141.918 7.09866 140.74 8.42328 141.118 10.3248C141.563 12.5655 143.04 14.2246 145.262 14.2833C148.123 14.3591 151.954 13.8814 156.867 13.6398C145.699 22.2332 132.185 33.5284 118.243 46.0953C116.606 33.4522 110.744 23.3406 99.2112 23.3406C82.4485 23.3406 65.6858 48.8491 58.3976 63.061C57.6688 51.4 52.5671 40.4678 41.6349 40.4678C18.9062 40.4678 0 92.188 0 99.9277C0 102.574 3.02603 104.603 4.84807 104.603C7.03451 104.603 7.7451 103.51 8.47392 100.959C17.9485 69.9847 32.1604 48.4847 41.6349 48.4847C46.3722 48.4847 50.0163 53.9508 50.0163 66.705C50.0163 76.0892 48.4176 81.7871 48.4176 84.0107C48.4176 87.4853 51.4739 89.2983 53.2959 89.2983C55.4824 89.2983 56.2112 88.205 57.3044 85.6542C68.2366 58.6881 86.0926 31.722 98.8468 31.722C105.127 31.722 109.4 39.7444 109.752 53.8608C71.5134 89.3373 32.9868 132.088 32.9868 153.118C32.9868 161.871 37.813 166.917 45.6434 166.917C73.7567 166.917 117.756 97.0459 118.714 55.3239C134.359 40.603 149.277 27.7481 160.012 19.5687C158.36 23.6701 156.693 27.6592 155.846 30.6368C155.225 32.8152 155.603 35.2105 158.28 36.2516C159.973 36.9101 161.482 35.9557 162.146 34.0633C166.18 22.5521 168.259 17.8304 170.727 11.2445C172.341 6.93687 172.168 6.34908 167.46 6.46241Z" fill="#0B3B3C"/>
</svg>
